<?xml version="1.0" encoding="UTF-8" standalone="no"?>
<!DOCTYPE svg PUBLIC "-//W3C//DTD SVG 1.1//EN"
 "http://www.w3.org/Graphics/SVG/1.1/DTD/svg11.dtd">
<!-- Generated by graphviz version 14.0.0 (20250921.2048)
 -->
<!-- Title: finite_state_machine Pages: 1 -->
<svg width="576pt" height="217pt"
 viewBox="0.00 0.00 576.00 217.00" xmlns="http://www.w3.org/2000/svg" xmlns:xlink="http://www.w3.org/1999/xlink">
<g id="graph0" class="graph" transform="scale(0.792484 0.792484) rotate(0) translate(4 270.16)">
<title>finite_state_machine</title>
<polygon fill="white" stroke="none" points="-4,4 -4,-270.16 722.83,-270.16 722.83,4 -4,4"/>
<!-- IDLE -->
<g id="node1" class="node">
<title>IDLE</title>
<ellipse fill="none" stroke="black" cx="63.04" cy="-80.01" rx="59.04" ry="59.04"/>
<ellipse fill="none" stroke="black" cx="63.04" cy="-80.01" rx="63.04" ry="63.04"/>
<text xml:space="preserve" text-anchor="middle" x="63.04" y="-82.86" font-family="Times,serif" font-size="12.00">IDLE</text>
<text xml:space="preserve" text-anchor="middle" x="63.04" y="-68.61" font-family="Times,serif" font-size="12.00">Reset Counter</text>
</g>
<!-- IDLE&#45;&gt;IDLE -->
<g id="edge1" class="edge">
<title>IDLE&#45;&gt;IDLE</title>
<path fill="none" stroke="black" d="M44.36,-140.45C46.47,-152.48 52.69,-161.06 63.04,-161.06 70,-161.06 75.09,-157.19 78.32,-151"/>
<polygon fill="black" stroke="black" points="81.52,-152.48 81.26,-141.89 74.86,-150.33 81.52,-152.48"/>
<text xml:space="preserve" text-anchor="middle" x="63.04" y="-164.26" font-family="Times,serif" font-size="14.00">start = 0</text>
</g>
<!-- PWRUP -->
<g id="node2" class="node">
<title>PWRUP</title>
<ellipse fill="none" stroke="black" cx="294.99" cy="-179.01" rx="87.15" ry="87.15"/>
<text xml:space="preserve" text-anchor="middle" x="294.99" y="-188.99" font-family="Times,serif" font-size="12.00">PWRUP</text>
<text xml:space="preserve" text-anchor="middle" x="294.99" y="-174.74" font-family="Times,serif" font-size="12.00">pwrupOsc=1</text>
<text xml:space="preserve" text-anchor="middle" x="294.99" y="-160.49" font-family="Times,serif" font-size="12.00">Count oscillator pulses</text>
</g>
<!-- IDLE&#45;&gt;PWRUP -->
<g id="edge2" class="edge">
<title>IDLE&#45;&gt;PWRUP</title>
<path fill="none" stroke="black" d="M121.47,-104.74C146.48,-115.51 176.38,-128.38 204.21,-140.36"/>
<polygon fill="black" stroke="black" points="202.8,-143.56 213.37,-144.3 205.57,-137.13 202.8,-143.56"/>
<text xml:space="preserve" text-anchor="middle" x="166.96" y="-135.68" font-family="Times,serif" font-size="14.00">start = 1</text>
</g>
<!-- PWRDWN -->
<g id="node3" class="node">
<title>PWRDWN</title>
<ellipse fill="none" stroke="black" cx="474.47" cy="-163.01" rx="55.33" ry="55.33"/>
<text xml:space="preserve" text-anchor="middle" x="474.47" y="-165.86" font-family="Times,serif" font-size="12.00">PWRDWN</text>
<text xml:space="preserve" text-anchor="middle" x="474.47" y="-151.61" font-family="Times,serif" font-size="12.00">pwrupOsc=0</text>
</g>
<!-- PWRUP&#45;&gt;PWRDWN -->
<g id="edge3" class="edge">
<title>PWRUP&#45;&gt;PWRDWN</title>
<path fill="none" stroke="black" d="M382.13,-171.25C390.75,-170.47 399.41,-169.69 407.77,-168.94"/>
<polygon fill="black" stroke="black" points="407.81,-172.45 417.45,-168.06 407.18,-165.48 407.81,-172.45"/>
</g>
<!-- CAPTURE -->
<g id="node4" class="node">
<title>CAPTURE</title>
<ellipse fill="none" stroke="black" cx="642.81" cy="-76.01" rx="76.01" ry="76.01"/>
<text xml:space="preserve" text-anchor="middle" x="642.81" y="-78.86" font-family="Times,serif" font-size="12.00">CAPTURE</text>
<text xml:space="preserve" text-anchor="middle" x="642.81" y="-64.61" font-family="Times,serif" font-size="12.00">Store counter value</text>
</g>
<!-- PWRDWN&#45;&gt;CAPTURE -->
<g id="edge4" class="edge">
<title>PWRDWN&#45;&gt;CAPTURE</title>
<path fill="none" stroke="black" d="M524.03,-137.62C536.84,-130.92 550.98,-123.52 564.89,-116.25"/>
<polygon fill="black" stroke="black" points="566.38,-119.42 573.61,-111.68 563.13,-113.22 566.38,-119.42"/>
</g>
<!-- CAPTURE&#45;&gt;IDLE -->
<g id="edge5" class="edge">
<title>CAPTURE&#45;&gt;IDLE</title>
<path fill="none" stroke="black" d="M566.51,-76.54C455.23,-77.31 248.14,-78.74 137.77,-79.5"/>
<polygon fill="black" stroke="black" points="137.91,-76 127.94,-79.57 137.96,-83 137.91,-76"/>
</g>
</g>
</svg>
